<?xml version="1.0" encoding="UTF-8" standalone="no"?>
<!-- Created with Inkscape (http://www.inkscape.org/) -->

<svg
   xmlns:dc="http://purl.org/dc/elements/1.1/"
   xmlns:cc="http://creativecommons.org/ns#"
   xmlns:rdf="http://www.w3.org/1999/02/22-rdf-syntax-ns#"
   xmlns:svg="http://www.w3.org/2000/svg"
   xmlns="http://www.w3.org/2000/svg"
   xmlns:sodipodi="http://sodipodi.sourceforge.net/DTD/sodipodi-0.dtd"
   xmlns:inkscape="http://www.inkscape.org/namespaces/inkscape"
   width="22.687mm"
   height="30.754999mm"
   viewBox="0 0 22.687 30.754999"
   version="1.1"
   id="svg3364"
   inkscape:version="0.92.2 (5c3e80d, 2017-08-06)"
   sodipodi:docname="list-sauce.svg">
  <defs
     id="defs3358" />
  <sodipodi:namedview
     id="base"
     pagecolor="#ffffff"
     bordercolor="#666666"
     borderopacity="1.0"
     inkscape:pageopacity="0.0"
     inkscape:pageshadow="2"
     inkscape:zoom="1.4"
     inkscape:cx="1.7042869"
     inkscape:cy="198.34116"
     inkscape:document-units="mm"
     inkscape:current-layer="layer1"
     showgrid="false"
     inkscape:window-width="1920"
     inkscape:window-height="1021"
     inkscape:window-x="0"
     inkscape:window-y="30"
     inkscape:window-maximized="1" />
  <metadata
     id="metadata3361">
    <rdf:RDF>
      <cc:Work
         rdf:about="">
        <dc:format>image/svg+xml</dc:format>
        <dc:type
           rdf:resource="http://purl.org/dc/dcmitype/StillImage" />
        <dc:title></dc:title>
      </cc:Work>
    </rdf:RDF>
  </metadata>
  <g
     inkscape:label="Layer 1"
     inkscape:groupmode="layer"
     id="layer1"
     transform="translate(0,-266.245)">
    <g
       id="g3939"
       transform="translate(13.03513,94.52117)">
      <path
         d="m 4.5095075,183.95262 c -0.012085,-0.007 -0.02235,-0.0173 -0.030861,-0.0294 -0.026093,-0.041 -0.014017,-0.0955 0.027158,-0.12168 0.018674,-0.0119 0.03739,-0.0228 0.057146,-0.0325 0.1503822,-0.0738 3.6575452,-1.83169 2.6548976,-4.44063 -0.9341775,-2.42847 -4.8910519,-1.5187 -5.3388779,-1.40756 -0.047327,0.0124 -0.095055,-0.0171 -0.1069393,-0.0642 -0.011765,-0.0474 0.017031,-0.0952 0.064226,-0.10695 0.4638091,-0.11555 4.5572056,-1.05471 5.5463765,1.51518 1.0598423,2.75763 -2.5857007,4.58583 -2.7413885,4.66201 -0.013863,0.007 -0.027253,0.0148 -0.040818,0.0233 -0.028594,0.0182 -0.063409,0.0179 -0.090865,0.002"
         style="fill:#351f17;fill-opacity:1;fill-rule:nonzero;stroke:none;stroke-width:0.03527778"
         id="path2311"
         inkscape:connector-curvature="0" />
      <path
         d="m 5.2461141,184.93233 c -0.014137,-0.008 -0.02602,-0.0205 -0.034519,-0.0357 -0.022631,-0.043 -0.00606,-0.0962 0.037131,-0.11889 1.656929,-0.86954 4.174017,-3.0867 3.098293,-5.88221 -1.2052782,-3.1351 -5.2335158,-2.49238 -6.4389042,-2.22053 -0.047537,0.0112 -0.094946,-0.0186 -0.1054571,-0.0668 -0.010715,-0.0473 0.019087,-0.0946 0.06654,-0.10514 1.2409277,-0.28005 5.3854516,-0.93768 6.6427158,2.32906 1.1201795,2.91113 -1.4726306,5.2052 -3.1810626,6.10146 -0.027577,0.0145 -0.05947,0.0129 -0.084649,-0.001"
         style="fill:#351f17;fill-opacity:1;fill-rule:nonzero;stroke:none;stroke-width:0.03527778"
         id="path2313"
         inkscape:connector-curvature="0" />
      <path
         d="m -8.360743,202.1126 -9.12e-5,-5e-5 c -1.4626329,-0.83122 -4.8449288,-3.29309 -4.6675818,-8.19114 0.130062,-3.5902 1.659598,-6.08168 3.9159091,-8.71762 0.7744373,-0.90447 1.5854616,-1.87782 2.2445904,-2.9556 1.2493379,-2.03971 1.981371,-5.18669 0.6368626,-7.27662 -0.6073739,-0.94608 -1.6413173,-1.48677 -2.95272,-1.5538 -0.029721,-0.002 -0.056677,-0.0177 -0.071851,-0.0431 -0.014988,-0.0256 -0.016027,-0.0572 -0.00294,-0.0838 0.4644205,-0.94022 2.0511351,-1.37941 3.0043647,-1.44525 1.1131806,-0.077 1.9622368,-0.1215 3.0084069,-0.12133 1.3271522,0.001 2.52755055,0.0239 3.66902417,0.0703 0.65766303,0.0261 1.09589403,0.11352 1.37886343,0.27434 0.512173,0.29107 0.5061292,0.8015 0.4412687,1.49075 -0.017285,0.18385 -0.052186,0.42205 -0.0924,0.69751 -0.205557,1.40371 -0.5494141,3.75334 0.2279059,6.0919 0.6214023,1.86686 2.0131431,3.3736 3.3592052,4.83105 1.3202792,1.4295 2.6855172,2.90755 3.3090522,4.71825 0.8085363,2.34724 0.9619157,6.02496 -0.5179072,8.94875 -0.9164902,1.81073 -2.3548842,3.06521 -4.1600577,3.62769 -0.00859,0.003 -0.01731,0.004 -0.026219,0.004 l -11.9673037,-0.005 c -0.011485,3.8e-4 -0.022418,-0.002 -0.033108,-0.007 -0.011014,-0.005 -0.2821441,-0.11515 -0.7034091,-0.35455 z m 1.1057735,-28.3476 c 0.4794782,0.27249 0.8740106,0.64618 1.1724265,1.11089 1.3854134,2.15412 0.6420627,5.37928 -0.6347415,7.46424 -0.6659821,1.08877 -1.4822606,2.06851 -2.2611862,2.97867 -2.2322403,2.60757 -3.7455113,5.06979 -3.8738013,8.60918 -0.1736,4.80113 3.1439908,7.21593 4.5785904,8.03122 l 9.13e-5,5e-5 c 0.3547707,0.20162 0.604372,0.31126 0.6672743,0.33781 l 11.9360739,0.005 c 1.7521822,-0.54992 3.1498497,-1.77179 4.042088,-3.53478 1.4567493,-2.87791 1.3052022,-6.49944 0.5085739,-8.81188 -0.6112979,-1.77554 -1.9639295,-3.23957 -3.2719338,-4.65575 -1.3585221,-1.47123 -2.7635413,-2.9923 -3.3968429,-4.89542 -0.7905775,-2.37827 -0.4292798,-4.8467 -0.2351109,-6.17289 0.040014,-0.27318 0.074467,-0.50924 0.091447,-0.68855 0.069092,-0.73547 0.034452,-1.1007 -0.3528907,-1.32083 -0.2576965,-0.14645 -0.6703309,-0.2264 -1.29879151,-0.25151 -1.13934818,-0.0463 -2.33710249,-0.0689 -3.66214379,-0.0698 -1.0410085,-4e-4 -1.8867326,0.0439 -2.9960065,0.12043 -0.8704051,0.0601 -2.2883582,0.43689 -2.7919627,1.22958 0.6710617,0.0517 1.2688206,0.2245 1.7788464,0.51435"
         style="fill:#351f17;fill-opacity:1;fill-rule:nonzero;stroke:none;stroke-width:0.03527778"
         id="path2315"
         inkscape:connector-curvature="0" />
      <path
         d="m 6.2767351,187.22323 c -0.7106196,-0.1528 -1.4101835,-0.33276 -2.160314,-0.28829 -0.8869159,0.0518 -1.6864625,0.34446 -2.5784478,0.34158 -1.01127535,-0.003 -1.95218878,-0.19456 -2.9551963,-0.28939 -1.7591542,-0.16551 -3.4366197,0.30927 -5.1768769,0.2201 -0.8538196,-0.0441 -1.6538376,-0.25994 -2.4486325,-0.46704 -1.5766766,1.84002 -2.6947836,3.82703 -2.8122006,7.19584 -0.202335,5.75755 4.7873247,7.83872 4.7873247,7.83872 l 10.7767509,0.004 c 4.668271,-1.49612 5.4171173,-7.79341 4.1603701,-11.54694 -0.3671775,-1.09705 -0.9426982,-2.08825 -1.5927776,-3.0088"
         style="fill:#d40000;fill-opacity:1;fill-rule:nonzero;stroke:none;stroke-width:0.03527778"
         id="path2317"
         inkscape:connector-curvature="0" />
    </g>
  </g>
</svg>
